<svg xmlns="http://www.w3.org/2000/svg" viewBox="0 0 28.27 31.12"><defs><style>.cls-1{isolation:isolate;}.cls-2{fill:#028c22;}</style></defs><g id="Camada_2" data-name="Camada 2"><g id="Camada_1-2" data-name="Camada 1"><g id="_8" data-name="8"><g class="cls-1"><path class="cls-2" d="M1.69,30.91l-.32-2.24s0-.08,0-.12a3.82,3.82,0,0,1,.07-1.11,3.16,3.16,0,0,1,.16-.57l.1-.28c.47-1.25,1.12-2,1.69-1.88l-1.23-.17c-.57-.08-1.22.63-1.68,1.87l-.11.28a3.41,3.41,0,0,0-.16.57,3.86,3.86,0,0,0-.07,1.11c0,.05,0,.09,0,.13l.33,2.24a.34.34,0,0,1,0,.1l0,.08s0,0,0,0l1.23.17s0,0,0,0l0-.08a.28.28,0,0,0,0-.09Z"/><path class="cls-2" d="M4.2,24.87c-.17-.11-.38-.24-.64-.38l-.15,0-1.23-.18.15,0c.26.14.47.28.64.38A1.71,1.71,0,0,0,3.5,25l1.23.17A1.63,1.63,0,0,1,4.2,24.87Z"/><path class="cls-2" d="M5.78,22l-2,2.87c-.19.27-.38.15-.81-.13-.17-.1-.38-.24-.64-.38-.64-.24-1.41.53-1.94,2l-.11.28A4.58,4.58,0,0,0,0,28.64l.33,2.24s0,0,0,0,0,0,.06,0a.34.34,0,0,0,0-.18L.14,28.5a3.9,3.9,0,0,1,.21-1.81l.11-.28c.5-1.34,1.22-2.06,1.82-1.84.26.14.47.27.64.38.44.28.66.42.9.09l2-2.87Z"/><path class="cls-2" d="M7,22.13,5.78,22l0,.22L3.82,25c-.12.15-.23.21-.36.19l1.23.17c.13,0,.24,0,.36-.19l2-2.87Z"/></g><g class="cls-1"><path class="cls-2" d="M14,28.17l0,0-1.73-2.09a2.11,2.11,0,0,1-.21-.31,1.78,1.78,0,0,1-.32-1.25l.05-.23a1.62,1.62,0,0,1,.57-1L11.5,24a1.65,1.65,0,0,0-.56,1l0,.23a1.77,1.77,0,0,0,.31,1.25,3.46,3.46,0,0,0,.22.31l1.72,2.09,0,0s0,.1,0,.13L14,28.3A.1.1,0,0,0,14,28.17Z"/><path class="cls-2" d="M15.48,23.41c-.36-.14-.81-.32-1.36-.52a2.07,2.07,0,0,0-1.92.21l-.86.68a2.07,2.07,0,0,1,1.92-.21l1.36.52c.88.35,1.3.52,1.51.34l.87-.68C16.78,23.93,16.37,23.76,15.48,23.41Z"/><g class="cls-1"><g class="cls-1"><path class="cls-2" d="M16.32,24.63l.86-.68h0l-.86.68Z"/></g></g><path class="cls-2" d="M18.64,22.22l-2.49,2.2c-.21.19-.63,0-1.53-.33l-1.36-.52c-1.28-.39-2.27.09-2.52,1.23l-.05.22a2.33,2.33,0,0,0,.62,1.81L13,28.93l.07.05h.07s0-.1,0-.16l-1.72-2.09a2,2,0,0,1-.53-1.56l0-.23a1.66,1.66,0,0,1,2.36-1.15c.54.19,1,.37,1.35.51.93.38,1.4.56,1.67.33l2.49-2.21Z"/><polygon class="cls-2" points="19.51 21.54 18.64 22.22 18.81 22.43 16.32 24.63 17.18 23.95 19.68 21.75 19.51 21.54"/></g><path class="cls-2" d="M7.43,18.56c-.77-.1-2.1,2.35-2,3.46a1.3,1.3,0,0,0,.75,1.1c.82.37,1.77-.25,2.37-.83l1.27-1.21Z"/><path class="cls-2" d="M20.56,18.69c-.75-.18-2.56,1.82-2.7,2.94a1.31,1.31,0,0,0,.48,1.23,2.35,2.35,0,0,0,2.5-.29c.14-.08,1.26-.69,1.39-.78Z"/><path class="cls-2" d="M19.71,2.16c.13.1-.88.87-.81,1,.27.64-.36.91-.93.86a26.7,26.7,0,0,0-3.35,0,.92.92,0,0,0-.57.37.51.51,0,0,1-.34.24h-.14c-.47,0-.94.22-1.21-.28-.15-.28-.33-.59-.45-.88a.46.46,0,0,1,0-.36L11.94,3a1.21,1.21,0,0,1,.37-.49,1.24,1.24,0,0,1,.54,0c.38,0,.77,0,1.15,0C15.51,2.44,19.14,1.76,19.71,2.16Z"/><path class="cls-2" d="M7.68,17.84a6.79,6.79,0,0,1-.89,1c-1.19,1.49,1,3.72,2.87,2.4,0,0,.78-.62,1.16-1A5,5,0,0,1,7.68,17.84Z"/><path class="cls-2" d="M23.19,18.16c-.22-.22-1.21-1.05-2.26-2a4,4,0,0,0-1.45,1A14.42,14.42,0,0,0,18.26,19l.84.58s-.1.09-.13.12c-.27.27.46,1.29.91,1.64a2.24,2.24,0,0,0,2.35.49,9.51,9.51,0,0,0,1.23-.9C24.37,20.24,24.18,19.15,23.19,18.16Z"/><path class="cls-2" d="M18.33,13.33a4.17,4.17,0,0,0-.69-1,3.2,3.2,0,0,0-.94-.57,6.75,6.75,0,0,0-3.29-.53,4.79,4.79,0,0,0-2.45,1,8.7,8.7,0,0,0-1.52,2.42c-.18.31-1.33,2.52-1.53,2.82a4.82,4.82,0,0,1-.51.66,1.79,1.79,0,0,0,.92,2.1,2.15,2.15,0,0,0,2.14.4,6.62,6.62,0,0,0,.58-.51,37.31,37.31,0,0,0,3-3.12.7.7,0,0,1,.29-.25.61.61,0,0,1,.3,0s2.52,1.44,4.13,2.57c.07-.94,2.15-2.88,3.07-2.34A22.12,22.12,0,0,1,18.33,13.33Z"/><path class="cls-2" d="M11.41,12.34c-.58,1.1-1.46,3.13-2,4.24a33.26,33.26,0,0,0,4.32-2.19Z"/><path class="cls-2" d="M16.1,4.73c-.55.78-1.54,2.83-2.86,4.7-1.06,1.51-2.33,2.36-2.23,2.75l.23.44a4,4,0,0,0,2.46,1.82,4.54,4.54,0,0,0,4.54-1.51c.63-.79,1-1.43,1.63-2.22a18.05,18.05,0,0,0,3-4.7,3.27,3.27,0,0,0,.07-2.65,3.81,3.81,0,0,0-2-1.45c-.82-.35-1-.56-1.93-.07a5.06,5.06,0,0,0-1.13.83A14.44,14.44,0,0,0,16.1,4.73Z"/><path class="cls-2" d="M18.72,4.84a2.05,2.05,0,0,0,1.46,2.91c.87.1,1.13-.45,1.78-.88a1.08,1.08,0,0,0,.32-.28,2.62,2.62,0,0,0-.65-2.41c-.39-.39-1.2-1.07-1.6-.62S18.91,4.51,18.72,4.84Z"/><path class="cls-2" d="M20.69.61A3.27,3.27,0,0,0,19.86,4a2.79,2.79,0,0,0,.46.91c.9,1.2,2.83,3.44,3.78,2.29.14-.16,1.52-4-.05-6A2.3,2.3,0,0,0,20.69.61Z"/><path class="cls-2" d="M20.63,5.27c0-.49-.39-.87-.16-1.25s.64.05,1,.11.51-.59.81-.88a4.45,4.45,0,0,1,1.36-1c.07,0,.91-.26.92-.17a2.34,2.34,0,0,0-3.25-2A2.78,2.78,0,0,0,19.78,4,4,4,0,0,0,20.63,5.27Z"/><path class="cls-2" d="M18.48,15.62a1.79,1.79,0,0,0,1,1.13,2,2,0,0,0,.54.06c.76,0,4.74-.22,5.77-.42.4-.08,1.09-.15,1.49-.23.18,0,.73-.08.85-.22a.78.78,0,0,0,.14-.35A3.06,3.06,0,0,0,28.09,14c-.07-.18-.11-.34-.29-.41s-.43.1-.65.05-.21-.15-.32-.18-.37.12-.49.29l-.38.5c-.15.2-.31.5-.54.6s-4.63-.16-4.86-.08c-.11-1.2-.45-3.79-.51-3.94s-.23.05-.4-.12a1.92,1.92,0,0,0-1-.61c-1.05-.22-1.63.85-1.44,1.73A21.82,21.82,0,0,0,18.48,15.62Z"/><path class="cls-2" d="M20.73,12.5c-.22-1-.44-2-.65-2.83a1.58,1.58,0,0,0-2.17-1.21c-1.92.67-.9,4.63-.84,4.92C17.24,14.23,20.91,13.33,20.73,12.5Z"/><path class="cls-2" d="M18,12.52l.33,1.17c.19,0,.39-.06.59-.1l-.32-1.18Z"/></g></g></g></svg>