<svg xmlns="http://www.w3.org/2000/svg" viewBox="0 0 365.08 52.55"><defs><style>.cls-1{font-size:44.73px;fill:#009be0;font-family:Cronus-Italic, Cronus;font-style:italic;}.cls-2{letter-spacing:-0.05em;}.cls-3{letter-spacing:0em;}.cls-4{letter-spacing:-0.04em;}.cls-5{letter-spacing:0em;}.cls-6{letter-spacing:-0.03em;}.cls-7{isolation:isolate;}.cls-8{fill:#028c22;}</style></defs><g id="Camada_2" data-name="Camada 2"><g id="Camada_1-2" data-name="Camada 1"><text class="cls-1" transform="translate(0 37.59) scale(1.51 1)">ADA<tspan class="cls-2" x="63.48" y="0">P</tspan><tspan class="cls-3" x="82.13" y="0" xml:space="preserve">T   </tspan><tspan class="cls-4" x="119.05" y="0"> </tspan><tspan class="cls-5" x="123.54" y="0">SPO</tspan><tspan class="cls-2" x="185.91" y="0">R</tspan><tspan class="cls-6" x="204.56" y="0">T</tspan><tspan x="221.53" y="0">S</tspan></text><g id="_8" data-name="8"><g class="cls-7"><path class="cls-8" d="M152.27,37.27,152,35a.51.51,0,0,1,0-.13,3.86,3.86,0,0,1,.07-1.11,3.41,3.41,0,0,1,.16-.57l.1-.28c.47-1.24,1.12-1.95,1.69-1.87l-1.23-.18c-.57-.08-1.22.63-1.69,1.88l-.1.28a3.41,3.41,0,0,0-.16.57,3.84,3.84,0,0,0-.07,1.11.5.5,0,0,0,0,.12l.32,2.24a.33.33,0,0,1,0,.1.94.94,0,0,1,0,.09l0,0,1.23.17,0,0,0-.08s0-.07,0-.09Z"/><path class="cls-8" d="M154.78,31.22c-.17-.1-.38-.24-.65-.38a.32.32,0,0,0-.14,0l-1.23-.18.15,0c.26.14.47.27.64.38a1.63,1.63,0,0,0,.53.27l1.23.18A1.71,1.71,0,0,1,154.78,31.22Z"/><path class="cls-8" d="M156.36,28.31l-2,2.86c-.19.28-.39.15-.81-.12-.17-.11-.38-.24-.64-.38-.65-.24-1.41.53-1.95,2l-.1.28a4.58,4.58,0,0,0-.25,2.09l.33,2.24a0,0,0,0,0,0,0s0,0,.06,0a.31.31,0,0,0,0-.19l-.32-2.24a3.87,3.87,0,0,1,.21-1.8l.1-.28c.51-1.35,1.23-2.07,1.83-1.84.25.13.46.27.63.38.44.28.66.42.9.08l2-2.86Z"/><path class="cls-8" d="M157.59,28.48l-1.23-.17,0,.22-2,2.86a.34.34,0,0,1-.35.19l1.23.18a.36.36,0,0,0,.35-.19l2-2.87Z"/></g><g class="cls-7"><path class="cls-8" d="M164.6,34.52v0l-1.73-2.1-.22-.3a1.8,1.8,0,0,1-.31-1.26l0-.22a1.62,1.62,0,0,1,.56-.95l-.86.68a1.57,1.57,0,0,0-.56.95l-.06.22a1.86,1.86,0,0,0,.32,1.26,2.86,2.86,0,0,0,.22.3l1.72,2.1,0,0s0,.11,0,.13l.86-.67S164.63,34.57,164.6,34.52Z"/><path class="cls-8" d="M166.06,29.77c-.36-.15-.81-.33-1.36-.52a2,2,0,0,0-1.92.21l-.87.68a2.06,2.06,0,0,1,1.93-.21c.54.19,1,.37,1.35.51.89.36,1.3.52,1.52.35l.87-.68C167.36,30.28,166.94,30.12,166.06,29.77Z"/><g class="cls-7"><g class="cls-7"><path class="cls-8" d="M166.9,31l.86-.68,0,0-.86.68,0,0Z"/></g></g><path class="cls-8" d="M169.22,28.58l-2.49,2.2c-.22.19-.63,0-1.54-.34-.36-.14-.81-.32-1.35-.51-1.28-.39-2.27.09-2.52,1.22l0,.23a2.34,2.34,0,0,0,.61,1.81l1.73,2.09a.13.13,0,0,0,.07.06.06.06,0,0,0,.07,0s0-.09,0-.15L162,33.08a2,2,0,0,1-.54-1.56l.06-.22c.23-1.07,1.16-1.52,2.36-1.15.54.19,1,.37,1.34.51.94.37,1.41.56,1.68.32l2.49-2.2Z"/><polygon class="cls-8" points="170.09 27.9 169.22 28.58 169.39 28.78 166.9 30.98 167.76 30.3 170.25 28.1 170.09 27.9"/></g><path class="cls-8" d="M158,24.92c-.78-.1-2.1,2.34-2,3.46a1.28,1.28,0,0,0,.74,1.09c.83.37,1.78-.24,2.38-.83l1.26-1.2Z"/><path class="cls-8" d="M171.14,25c-.75-.17-2.56,1.83-2.7,2.94a1.27,1.27,0,0,0,.48,1.23,2.32,2.32,0,0,0,2.5-.28c.13-.09,1.26-.7,1.39-.78Z"/><path class="cls-8" d="M170.29,8.52c.12.09-.88.86-.82,1,.28.64-.35.91-.92.86a29,29,0,0,0-3.36,0,.9.9,0,0,0-.56.38.54.54,0,0,1-.35.24h-.14c-.47-.06-.93.22-1.21-.29-.15-.28-.32-.59-.45-.88a.5.5,0,0,1,0-.36.75.75,0,0,1,.06-.13,1.45,1.45,0,0,1,.38-.5,1.22,1.22,0,0,1,.54,0l1.15,0C166.08,8.8,169.72,8.11,170.29,8.52Z"/><path class="cls-8" d="M158.26,24.2a7.38,7.38,0,0,1-.9,1c-1.19,1.49.95,3.71,2.88,2.39,0,0,.78-.61,1.16-.95A4.94,4.94,0,0,1,158.26,24.2Z"/><path class="cls-8" d="M173.77,24.52c-.23-.23-1.22-1.06-2.26-2a3.82,3.82,0,0,0-1.45,1,14.85,14.85,0,0,0-1.23,1.85c.31.2.59.4.85.58,0,0-.1.09-.14.12-.26.26.46,1.29.92,1.63a2.22,2.22,0,0,0,2.35.5,11.11,11.11,0,0,0,1.23-.9C174.94,26.6,174.76,25.51,173.77,24.52Z"/><path class="cls-8" d="M168.91,19.69a4.49,4.49,0,0,0-.69-1,2.93,2.93,0,0,0-.94-.57,6.54,6.54,0,0,0-3.29-.53,4.76,4.76,0,0,0-2.45,1A8.7,8.7,0,0,0,160,21c-.18.3-1.33,2.52-1.53,2.82a6.55,6.55,0,0,1-.52.66,1.8,1.8,0,0,0,.93,2.1A2.18,2.18,0,0,0,161,27a4.55,4.55,0,0,0,.57-.52,35.8,35.8,0,0,0,3-3.12.68.68,0,0,1,.3-.24.72.72,0,0,1,.29,0s2.53,1.45,4.13,2.58c.07-.94,2.16-2.89,3.07-2.35A21.59,21.59,0,0,1,168.91,19.69Z"/><path class="cls-8" d="M162,18.69c-.57,1.11-1.46,3.14-2,4.24a32.69,32.69,0,0,0,4.32-2.18Z"/><path class="cls-8" d="M166.68,11.08c-.56.78-1.55,2.83-2.86,4.71-1.06,1.5-2.33,2.36-2.24,2.75l.24.44a4.06,4.06,0,0,0,2.45,1.82,4.57,4.57,0,0,0,4.55-1.51c.62-.79,1-1.43,1.62-2.22a18,18,0,0,0,3-4.7,3.19,3.19,0,0,0,.07-2.65,3.82,3.82,0,0,0-2-1.45c-.83-.36-1-.56-1.93-.08a5.11,5.11,0,0,0-1.13.84A14.28,14.28,0,0,0,166.68,11.08Z"/><path class="cls-8" d="M169.3,11.19a2.06,2.06,0,0,0,1.46,2.92c.86.1,1.12-.45,1.77-.88a1.12,1.12,0,0,0,.33-.28,2.62,2.62,0,0,0-.66-2.42c-.38-.38-1.19-1.06-1.6-.62S169.49,10.86,169.3,11.19Z"/><path class="cls-8" d="M171.27,7a3.25,3.25,0,0,0-.83,3.37,2.79,2.79,0,0,0,.46.91c.9,1.19,2.83,3.44,3.78,2.29.13-.16,1.52-4-.05-6A2.29,2.29,0,0,0,171.27,7Z"/><path class="cls-8" d="M171.2,11.62c0-.49-.39-.86-.15-1.24s.64,0,1,.1.51-.58.8-.87a4.17,4.17,0,0,1,1.37-.95c.06,0,.91-.26.91-.18a2.33,2.33,0,0,0-3.24-2,2.78,2.78,0,0,0-1.54,3.84A3.9,3.9,0,0,0,171.2,11.62Z"/><path class="cls-8" d="M169.06,22a1.83,1.83,0,0,0,.95,1.13,2.57,2.57,0,0,0,.55.06c.76,0,4.73-.23,5.77-.42.4-.08,1.09-.16,1.49-.23.18,0,.73-.08.85-.22a.75.75,0,0,0,.13-.35,3.11,3.11,0,0,0-.14-1.57c-.06-.17-.1-.34-.28-.41s-.43.11-.66.06-.2-.15-.32-.19-.37.13-.49.29l-.37.51c-.15.2-.31.5-.54.59s-4.63-.15-4.86-.07c-.11-1.21-.45-3.79-.51-3.94s-.24.05-.4-.13a2,2,0,0,0-1-.6c-1-.23-1.62.84-1.43,1.72A20.08,20.08,0,0,0,169.06,22Z"/><path class="cls-8" d="M171.31,18.85c-.22-1-.44-2-.65-2.83a1.57,1.57,0,0,0-2.17-1.2c-1.93.67-.9,4.63-.84,4.92C167.82,20.59,171.49,19.69,171.31,18.85Z"/><path class="cls-8" d="M168.62,18.88l.32,1.17a4.21,4.21,0,0,0,.6-.11l-.33-1.18Z"/></g></g></g></svg>