<svg xmlns="http://www.w3.org/2000/svg" viewBox="0 0 250.72 91.55"><defs><style>.cls-1{isolation:isolate;}.cls-2{fill:#028c22;}.cls-3{font-size:44.73px;fill:#009be0;font-family:Cronus-Italic, Cronus;font-style:italic;}.cls-4{letter-spacing:-0.05em;}.cls-5{letter-spacing:-0.03em;}</style></defs><g id="Camada_2" data-name="Camada 2"><g id="Camada_1-2" data-name="Camada 1"><g id="_8" data-name="8"><g class="cls-1"><path class="cls-2" d="M3.86,76.82l-.74-5.11a2.36,2.36,0,0,1,0-.28,9.13,9.13,0,0,1,.15-2.53,8.41,8.41,0,0,1,.37-1.29L3.84,67c1.07-2.84,2.55-4.46,3.85-4.28l-2.8-.4c-1.3-.18-2.78,1.44-3.85,4.28l-.24.64A7.42,7.42,0,0,0,.43,68.5,9.18,9.18,0,0,0,.28,71a2.7,2.7,0,0,0,0,.28l.74,5.1a.85.85,0,0,1,0,.23.54.54,0,0,1-.07.19.15.15,0,0,1-.08,0l2.8.39s0,0,.08,0A.42.42,0,0,0,3.85,77a.68.68,0,0,0,0-.2Z"/><path class="cls-2" d="M9.57,63.05c-.38-.25-.87-.55-1.46-.87a2,2,0,0,0-.33-.09L5,61.7a1.32,1.32,0,0,1,.33.08c.59.32,1.07.62,1.46.87A3.7,3.7,0,0,0,8,63.27l2.8.4A3.7,3.7,0,0,1,9.57,63.05Z"/><path class="cls-2" d="M13.17,56.4,8.62,62.93c-.44.62-.88.34-1.85-.28-.39-.25-.87-.55-1.46-.87-1.47-.55-3.2,1.2-4.43,4.46l-.24.64a10.36,10.36,0,0,0-.56,4.77l.74,5.1a.64.64,0,0,0,0,.07c0,.08.08.09.14,0a.72.72,0,0,0,.08-.42l-.74-5.1A8.71,8.71,0,0,1,.8,67.21L1,66.57c1.15-3.06,2.79-4.71,4.15-4.2.59.31,1.07.62,1.45.86,1,.65,1.51,1,2.06.2l4.54-6.53Z"/><path class="cls-2" d="M16,56.8l-2.8-.4.07.5L8.7,63.43a.82.82,0,0,1-.8.44l2.8.4a.82.82,0,0,0,.8-.44L16,57.3Z"/></g><g class="cls-1"><path class="cls-2" d="M32,70.57l0-.06L28,65.73A5.41,5.41,0,0,1,27.5,65a4.08,4.08,0,0,1-.72-2.86l.11-.51a3.7,3.7,0,0,1,1.29-2.17l-2,1.55a3.64,3.64,0,0,0-1.28,2.17l-.12.51a4.08,4.08,0,0,0,.72,2.86,5.41,5.41,0,0,0,.49.69L30,72.06a.21.21,0,0,1,0,.06c.08.11.09.24,0,.29l2-1.54C32.05,70.81,32,70.68,32,70.57Z"/><path class="cls-2" d="M35.28,59.72c-.83-.32-1.85-.73-3.09-1.18a4.69,4.69,0,0,0-4.38.49l-2,1.54a4.72,4.72,0,0,1,4.38-.48c1.24.45,2.26.86,3.09,1.18,2,.8,3,1.18,3.46.79l2-1.55C38.24,60.9,37.3,60.52,35.28,59.72Z"/><g class="cls-1"><g class="cls-1"><path class="cls-2" d="M37.19,62.5l2-1.55,0,0-2,1.55,0,0Z"/></g></g><path class="cls-2" d="M42.49,57,36.8,62c-.48.44-1.43.06-3.49-.76-.83-.32-1.85-.73-3.09-1.18-2.92-.89-5.18.21-5.75,2.8l-.11.5a5.34,5.34,0,0,0,1.4,4.13l3.93,4.78a.38.38,0,0,0,.17.12.13.13,0,0,0,.16,0c.07-.06,0-.22-.07-.35L26,67.28a4.6,4.6,0,0,1-1.21-3.55l.12-.51c.53-2.43,2.65-3.46,5.39-2.63,1.22.44,2.24.85,3.06,1.17,2.13.85,3.21,1.28,3.81.74l5.68-5Z"/><polygon class="cls-2" points="44.46 55.46 42.49 57.01 42.87 57.48 37.19 62.5 39.16 60.95 44.84 55.93 44.46 55.46"/></g><path class="cls-2" d="M16.93,48.68c-1.76-.22-4.77,5.34-4.53,7.88a3,3,0,0,0,1.69,2.5c1.89.84,4.06-.56,5.42-1.89.25-.25,2.63-2.5,2.88-2.75Z"/><path class="cls-2" d="M46.85,49c-1.71-.4-5.83,4.16-6.15,6.69a3,3,0,0,0,1.1,2.81c1.66,1.23,4.08.34,5.7-.66.3-.19,2.86-1.58,3.16-1.77Z"/><path class="cls-2" d="M44.91,11.31c.29.21-2,2-1.85,2.29.63,1.47-.81,2.08-2.11,2a61,61,0,0,0-7.65,0,2.1,2.1,0,0,0-1.29.85,1.18,1.18,0,0,1-.77.55,1.67,1.67,0,0,1-.32,0c-1.08-.12-2.14.5-2.76-.65-.35-.64-.74-1.35-1-2a1.22,1.22,0,0,1-.08-.82,1.68,1.68,0,0,1,.15-.3A3,3,0,0,1,28.06,12,2.81,2.81,0,0,1,29.29,12c.85,0,1.76,0,2.62,0C35.34,12,43.62,10.38,44.91,11.31Z"/><path class="cls-2" d="M17.51,47a16.53,16.53,0,0,1-2.05,2.37c-2.7,3.39,2.17,8.46,6.56,5.45,0,0,1.78-1.39,2.64-2.17A11.28,11.28,0,0,1,17.51,47Z"/><path class="cls-2" d="M52.86,47.77c-.52-.52-2.78-2.41-5.17-4.6a8.87,8.87,0,0,0-3.29,2.2,32.5,32.5,0,0,0-2.8,4.22c.69.46,1.35.91,1.92,1.33,0,0-.22.19-.3.26-.61.61,1.05,3,2.09,3.73,2.11,1.59,3.88,1.81,5.35,1.13a22.63,22.63,0,0,0,2.8-2C55.53,52.51,55.1,50,52.86,47.77Z"/><path class="cls-2" d="M41.77,36.75a10.07,10.07,0,0,0-1.56-2.2,7.07,7.07,0,0,0-2.16-1.3,15,15,0,0,0-7.48-1.2A10.91,10.91,0,0,0,25,34.27c-1.56,1.29-2.43,3.77-3.46,5.52-.41.69-3,5.74-3.49,6.43a14.07,14.07,0,0,1-1.16,1.51c-.15.16-.87,2.8,2.1,4.78s4.89.9,4.89.9a16.5,16.5,0,0,0,1.3-1.16,81.44,81.44,0,0,0,6.92-7.11,1.52,1.52,0,0,1,.69-.57,1.34,1.34,0,0,1,.66,0s5.75,3.29,9.42,5.86c.15-2.15,4.9-6.57,7-5.34C47,42.61,43.15,39.05,41.77,36.75Z"/><path class="cls-2" d="M26,34.49c-1.32,2.51-3.33,7.14-4.64,9.66,1.42-.23,9.41-4.64,9.84-5Z"/><path class="cls-2" d="M36.7,17.15c-1.27,1.78-3.53,6.45-6.53,10.72-2.41,3.43-5.31,5.39-5.09,6.27l.54,1a9.23,9.23,0,0,0,5.59,4.15c5.87,1.08,9.2-2,10.36-3.45,1.42-1.79,2.28-3.26,3.7-5.05,2.65-3.33,5.33-6.73,6.84-10.71.74-1.94,1.15-4.22.16-6-.91-1.67-2.76-2.55-4.5-3.3s-2.31-1.28-4.39-.18a11.78,11.78,0,0,0-2.58,1.9A32.66,32.66,0,0,0,36.7,17.15Z"/><path class="cls-2" d="M42.67,17.4A4.68,4.68,0,0,0,46,24c2,.23,2.56-1,4-2a2.19,2.19,0,0,0,.74-.64c.51-.83.19-3.81-1.49-5.5-.87-.88-2.73-2.43-3.65-1.41C44.45,15.81,43.09,16.65,42.67,17.4Z"/><path class="cls-2" d="M47.15,7.77a7.4,7.4,0,0,0-1.88,7.68,6.52,6.52,0,0,0,1,2.08c2.05,2.72,6.45,7.83,8.63,5.22.3-.36,3.45-9.23-.12-13.74C52.37,6.09,49.11,6,47.15,7.77Z"/><path class="cls-2" d="M47,18.38c.06-1.12-.88-2-.36-2.83.71-1.16,1.46.1,2.3.23s1.17-1.33,1.85-2a9.8,9.8,0,0,1,3.1-2.18c.16-.06,2.09-.58,2.09-.39-.14-3.79-3.89-5.65-7.4-4.53-2.9.93-5.17,4.33-3.51,8.75A9,9,0,0,0,47,18.38Z"/><path class="cls-2" d="M42.11,42a4.17,4.17,0,0,0,2.18,2.57,4.33,4.33,0,0,0,1.24.13c1.74,0,10.79-.5,13.15-1,.91-.18,2.49-.35,3.4-.52.41-.08,1.66-.18,1.94-.5a1.69,1.69,0,0,0,.3-.8A7,7,0,0,0,64,38.34c-.14-.4-.24-.77-.65-.93s-1,.24-1.49.12c-.27-.06-.46-.33-.73-.41-.44-.14-.84.28-1.12.65s-.56.77-.85,1.15-.7,1.14-1.23,1.36-10.55-.36-11.07-.17c-.26-2.74-1-8.63-1.17-9-.2-.52-.53.11-.91-.29a4.47,4.47,0,0,0-2.24-1.38c-2.38-.5-3.71,1.93-3.27,3.94A48.21,48.21,0,0,0,42.11,42Z"/><path class="cls-2" d="M47.25,34.86c-.5-2.29-1-4.65-1.49-6.45a3.58,3.58,0,0,0-4.94-2.75c-4.39,1.52-2.06,10.56-1.92,11.21C39.29,38.82,47.66,36.76,47.25,34.86Z"/><path class="cls-2" d="M41.12,34.92l.73,2.67c.44-.06.9-.14,1.36-.25l-.74-2.69Z"/></g><text class="cls-3" transform="translate(72.22 37.59) scale(1.51 1)">ADA<tspan class="cls-4" x="63.48" y="0">P</tspan><tspan x="82.13" y="0">T</tspan><tspan x="0" y="39">SPO</tspan><tspan class="cls-4" x="62.36" y="39">R</tspan><tspan class="cls-5" x="81.02" y="39">T</tspan><tspan x="97.99" y="39">S</tspan></text></g></g></svg>