<svg xmlns="http://www.w3.org/2000/svg" viewBox="0 0 69.46 76.45"><defs><style>.cls-1{isolation:isolate;}.cls-2{fill:#028c22;}</style></defs><g id="Camada_2" data-name="Camada 2"><g id="Camada_1-2" data-name="Camada 1"><g id="_8" data-name="8"><g class="cls-1"><path class="cls-2" d="M4.16,75.94l-.8-5.5,0-.3a9.12,9.12,0,0,1,.16-2.73A8.72,8.72,0,0,1,3.88,66l.26-.69c1.15-3.06,2.75-4.81,4.15-4.61l-3-.43c-1.4-.19-3,1.55-4.15,4.62l-.26.68A7.8,7.8,0,0,0,.47,67,9.47,9.47,0,0,0,.3,69.71c0,.1,0,.2,0,.3l.8,5.5a.67.67,0,0,1,0,.25.4.4,0,0,1-.08.2S1,76,1,76l3,.43a.09.09,0,0,0,.08-.06.4.4,0,0,0,.08-.2.86.86,0,0,0,0-.22Z"/><path class="cls-2" d="M10.32,61.1c-.42-.27-.94-.6-1.58-.94a2.25,2.25,0,0,0-.35-.09l-3-.43a2.37,2.37,0,0,1,.36.09c.64.34,1.16.67,1.58.94a4.08,4.08,0,0,0,1.3.67l3,.43A4.08,4.08,0,0,1,10.32,61.1Z"/><path class="cls-2" d="M14.2,53.93,9.3,61c-.48.67-1,.37-2-.3-.42-.27-.94-.6-1.58-.94C4.14,59.14,2.27,61,1,64.54l-.26.69a11.15,11.15,0,0,0-.61,5.14l.81,5.5a.19.19,0,0,0,0,.08c0,.08.09.09.14,0a.73.73,0,0,0,.09-.45L.34,70a9.7,9.7,0,0,1,.52-4.43l.26-.68c1.24-3.31,3-5.08,4.48-4.53.63.33,1.15.67,1.56.93,1.08.69,1.63,1,2.22.21l4.89-7Z"/><path class="cls-2" d="M17.22,54.36l-3-.43.07.54-4.89,7c-.28.39-.55.52-.87.47l3,.43c.32.05.59-.08.87-.47l4.9-7Z"/></g><g class="cls-1"><path class="cls-2" d="M34.46,69.21l0-.06L30.18,64a6,6,0,0,1-.53-.74,4.42,4.42,0,0,1-.78-3.09l.13-.55a4,4,0,0,1,1.38-2.34l-2.12,1.67a4,4,0,0,0-1.39,2.35l-.12.54a4.46,4.46,0,0,0,.77,3.09,7.33,7.33,0,0,0,.54.74l4.23,5.16.05.06c.08.12.09.25,0,.31l2.12-1.66A.26.26,0,0,0,34.46,69.21Z"/><path class="cls-2" d="M38,57.51c-.89-.35-2-.79-3.33-1.27a5.08,5.08,0,0,0-4.72.52l-2.13,1.67a5.1,5.1,0,0,1,4.73-.52c1.34.48,2.44.92,3.33,1.27,2.18.87,3.2,1.27,3.73.85l2.12-1.67C41.23,58.78,40.21,58.38,38,57.51Z"/><g class="cls-1"><g class="cls-1"><path class="cls-2" d="M40.09,60.5l2.13-1.67,0,0-2.12,1.67,0,0Z"/></g></g><path class="cls-2" d="M45.81,54.59,39.68,60c-.52.47-1.54.07-3.77-.82-.89-.35-2-.79-3.33-1.27-3.15-1-5.58.22-6.2,3l-.12.55a5.77,5.77,0,0,0,1.52,4.45L32,71.07a.73.73,0,0,0,.18.14.17.17,0,0,0,.17,0c.08-.07,0-.24-.07-.37l-4.23-5.16a4.94,4.94,0,0,1-1.31-3.83l.12-.54c.58-2.63,2.87-3.74,5.82-2.84,1.31.47,2.41.91,3.3,1.26,2.3.91,3.45,1.37,4.1.79l6.13-5.4Z"/><polygon class="cls-2" points="47.93 52.92 45.81 54.59 46.22 55.09 40.09 60.5 42.22 58.83 48.35 53.42 47.93 52.92"/></g><path class="cls-2" d="M18.25,45.6c-1.9-.23-5.14,5.76-4.88,8.5a3.19,3.19,0,0,0,1.83,2.7c2,.9,4.36-.61,5.83-2,.28-.27,2.84-2.69,3.11-3Z"/><path class="cls-2" d="M50.51,45.91c-1.84-.42-6.28,4.49-6.63,7.22a3.2,3.2,0,0,0,1.19,3c1.78,1.33,4.4.37,6.14-.71.33-.2,3.09-1.7,3.41-1.9Z"/><path class="cls-2" d="M48.42,5.32c.32.22-2.15,2.11-2,2.47.69,1.58-.87,2.24-2.27,2.12a66.58,66.58,0,0,0-8.24,0,2.27,2.27,0,0,0-1.39.92,1.31,1.31,0,0,1-.84.59,1.38,1.38,0,0,1-.35,0c-1.15-.13-2.3.55-3-.7-.37-.69-.8-1.45-1.11-2.15a1.25,1.25,0,0,1-.08-.89,3.31,3.31,0,0,1,.15-.33,3.23,3.23,0,0,1,.93-1.22A2.93,2.93,0,0,1,31.57,6c.93,0,1.9,0,2.84,0C38.1,6,47,4.32,48.42,5.32Z"/><path class="cls-2" d="M18.88,43.84a17.89,17.89,0,0,1-2.21,2.55c-2.92,3.66,2.34,9.13,7.07,5.88,0,0,1.92-1.5,2.84-2.34A12.14,12.14,0,0,1,18.88,43.84Z"/><path class="cls-2" d="M57,44.62c-.56-.56-3-2.59-5.57-5A9.62,9.62,0,0,0,47.87,42a34.86,34.86,0,0,0-3,4.55c.74.49,1.45,1,2.07,1.43,0,0-.24.21-.32.29-.66.65,1.13,3.17,2.25,4,2.27,1.71,4.18,2,5.77,1.22a25,25,0,0,0,3-2.22C59.87,49.74,59.41,47.05,57,44.62Z"/><path class="cls-2" d="M45,32.75a10.91,10.91,0,0,0-1.69-2.38A7.42,7.42,0,0,0,41,29,16.24,16.24,0,0,0,33,27.67a11.86,11.86,0,0,0-6,2.4c-1.68,1.39-2.62,4.07-3.73,6-.44.75-3.26,6.19-3.76,6.93a13.35,13.35,0,0,1-1.26,1.63c-.16.17-.93,3,2.27,5.15s5.27,1,5.27,1a13.26,13.26,0,0,0,1.4-1.26,85.7,85.7,0,0,0,7.47-7.66,1.61,1.61,0,0,1,.74-.61,1.55,1.55,0,0,1,.71,0s6.2,3.55,10.15,6.32c.17-2.31,5.3-7.08,7.55-5.75C50.7,39.07,46.52,35.22,45,32.75Z"/><path class="cls-2" d="M28,30.31C26.6,33,24.44,38,23,40.72c1.54-.25,10.16-5,10.61-5.37Z"/><path class="cls-2" d="M39.57,11.61c-1.37,1.92-3.8,7-7,11.56C29.93,26.87,26.8,29,27,29.93L27.62,31a9.94,9.94,0,0,0,6,4.47c6.33,1.17,9.91-2.13,11.17-3.71,1.53-1.93,2.46-3.52,4-5.45,2.85-3.59,5.75-7.26,7.37-11.55.8-2.1,1.24-4.54.17-6.51-1-1.8-3-2.75-4.85-3.56S49,3.32,46.77,4.51A12.41,12.41,0,0,0,44,6.56,34.84,34.84,0,0,0,39.57,11.61Z"/><path class="cls-2" d="M46,11.88A5,5,0,0,0,49.58,19c2.13.25,2.77-1.1,4.36-2.16a2.23,2.23,0,0,0,.8-.69c.55-.89.2-4.1-1.61-5.92-.94-1-2.94-2.63-3.93-1.53C47.92,10.17,46.46,11.08,46,11.88Z"/><path class="cls-2" d="M50.83,1.5a8,8,0,0,0-2,8.28A7,7,0,0,0,49.92,12c2.21,2.94,7,8.45,9.3,5.63.33-.39,3.72-9.95-.12-14.81C56.46-.31,53-.4,50.83,1.5Z"/><path class="cls-2" d="M50.68,12.94c.06-1.2-1-2.12-.39-3,.76-1.25,1.57.1,2.48.25S54,8.7,54.76,8A10.77,10.77,0,0,1,58.1,5.65c.17-.06,2.25-.63,2.26-.42-.15-4.09-4.19-6.09-8-4.88C49.25,1.35,46.8,5,48.6,9.78A9.71,9.71,0,0,0,50.68,12.94Z"/><path class="cls-2" d="M45.4,38.38c.5,1.15,1.16,2.4,2.36,2.77a4.53,4.53,0,0,0,1.33.15c1.88,0,11.63-.55,14.17-1,1-.19,2.69-.38,3.67-.56.44-.09,1.8-.19,2.09-.54a1.74,1.74,0,0,0,.33-.86A7.63,7.63,0,0,0,69,34.46c-.16-.43-.27-.83-.71-1s-1,.26-1.61.13c-.29-.07-.49-.36-.78-.45-.48-.15-.91.3-1.21.71l-.92,1.24c-.36.49-.76,1.22-1.32,1.46s-11.38-.39-11.94-.19c-.28-3-1.11-9.3-1.26-9.68-.21-.56-.57.13-1-.31a4.79,4.79,0,0,0-2.42-1.48c-2.56-.55-4,2.07-3.52,4.24A52,52,0,0,0,45.4,38.38Z"/><path class="cls-2" d="M50.94,30.71c-.54-2.48-1.09-5-1.6-7-.81-3-3.2-3.7-5.33-3-4.73,1.64-2.22,11.38-2.07,12.09C42.36,35,51.39,32.75,50.94,30.71Z"/><path class="cls-2" d="M44.33,30.77l.79,2.88a12.86,12.86,0,0,0,1.46-.27l-.79-2.89Z"/></g></g></g></svg>