<svg xmlns="http://www.w3.org/2000/svg" viewBox="0 0 314.43 101.55"><defs><style>.cls-1{isolation:isolate;}.cls-2{fill:#028c22;}.cls-3{font-size:44.73px;fill:#009be0;stroke:#009be0;stroke-miterlimit:10;stroke-width:4px;font-family:Cronus-Italic, Cronus;font-style:italic;}.cls-4{letter-spacing:-0.02em;}.cls-5{letter-spacing:-0.02em;}.cls-6{letter-spacing:-0.04em;}.cls-7{letter-spacing:0em;}</style></defs><g id="Camada_2" data-name="Camada 2"><g id="Camada_1-2" data-name="Camada 1"><g id="_8" data-name="8"><g class="cls-1"><path class="cls-2" d="M4.16,86.85l-.8-5.5,0-.31a9.12,9.12,0,0,1,.16-2.73,8.32,8.32,0,0,1,.39-1.39l.26-.69c1.15-3.06,2.75-4.81,4.15-4.61l-3-.43c-1.4-.2-3,1.55-4.15,4.61l-.26.69a7.47,7.47,0,0,0-.39,1.39A9.47,9.47,0,0,0,.3,80.61c0,.11,0,.21,0,.31l.8,5.5a.63.63,0,0,1,0,.24.44.44,0,0,1-.08.21s-.05.06-.08,0l3,.43a.08.08,0,0,0,.08,0,.44.44,0,0,0,.08-.21.82.82,0,0,0,0-.22Z"/><path class="cls-2" d="M10.32,72c-.42-.26-.94-.59-1.58-.94A2.25,2.25,0,0,0,8.39,71l-3-.43a2.37,2.37,0,0,1,.36.09c.64.35,1.16.68,1.58.94a3.88,3.88,0,0,0,1.3.67l3,.43A3.88,3.88,0,0,1,10.32,72Z"/><path class="cls-2" d="M14.2,64.84l-4.9,7c-.48.67-1,.36-2-.31-.42-.26-.94-.59-1.58-.94C4.14,70,2.27,71.93,1,75.45l-.26.69a11.13,11.13,0,0,0-.61,5.14l.81,5.5a.14.14,0,0,0,0,.07c0,.09.09.1.14,0a.73.73,0,0,0,.09-.45l-.8-5.5a9.68,9.68,0,0,1,.52-4.43l.26-.69c1.24-3.31,3-5.08,4.48-4.53.63.34,1.15.67,1.56.93,1.08.69,1.63,1,2.22.21l4.89-7Z"/><path class="cls-2" d="M17.22,65.27l-3-.43.07.53-4.89,7a.89.89,0,0,1-.87.48l3,.43a.89.89,0,0,0,.87-.48l4.9-7Z"/></g><g class="cls-1"><path class="cls-2" d="M34.46,80.11l0-.06L30.18,74.9a6.89,6.89,0,0,1-.53-.75,4.41,4.41,0,0,1-.78-3.08l.13-.55a4,4,0,0,1,1.38-2.35l-2.12,1.68a4,4,0,0,0-1.39,2.34l-.12.55a4.45,4.45,0,0,0,.77,3.08,6.46,6.46,0,0,0,.54.75l4.23,5.15.05.06c.08.12.09.26,0,.32l2.12-1.67C34.55,80.37,34.54,80.23,34.46,80.11Z"/><path class="cls-2" d="M38,68.42c-.89-.36-2-.8-3.33-1.28a5.08,5.08,0,0,0-4.72.52l-2.13,1.67a5.13,5.13,0,0,1,4.73-.52c1.34.49,2.44.92,3.33,1.28,2.18.86,3.2,1.27,3.73.85l2.12-1.67C41.23,69.69,40.21,69.28,38,68.42Z"/><g class="cls-1"><g class="cls-1"><path class="cls-2" d="M40.09,71.41l2.13-1.67,0,0-2.12,1.67,0,0Z"/></g></g><path class="cls-2" d="M45.81,65.5l-6.13,5.4c-.52.47-1.54.07-3.77-.81-.89-.36-2-.79-3.33-1.28-3.15-1-5.58.22-6.2,3l-.12.54a5.75,5.75,0,0,0,1.52,4.45L32,82a.44.44,0,0,0,.18.14.17.17,0,0,0,.17,0c.08-.07,0-.24-.07-.38l-4.23-5.15a5,5,0,0,1-1.31-3.83l.12-.55c.58-2.63,2.87-3.74,5.82-2.84,1.31.48,2.41.91,3.3,1.26,2.3.92,3.45,1.38,4.1.8L46.22,66Z"/><polygon class="cls-2" points="47.93 63.83 45.81 65.5 46.22 66 40.09 71.41 42.22 69.74 48.35 64.33 47.93 63.83"/></g><path class="cls-2" d="M18.25,56.51c-1.9-.24-5.14,5.76-4.88,8.5A3.19,3.19,0,0,0,15.2,67.7c2,.9,4.36-.6,5.83-2,.28-.27,2.84-2.69,3.11-3Z"/><path class="cls-2" d="M50.51,56.82c-1.84-.43-6.28,4.48-6.63,7.21a3.2,3.2,0,0,0,1.19,3c1.78,1.33,4.4.38,6.14-.7.33-.21,3.09-1.71,3.41-1.91Z"/><path class="cls-2" d="M48.42,16.22c.32.23-2.15,2.12-2,2.47.69,1.58-.87,2.24-2.27,2.12a68.59,68.59,0,0,0-8.24,0,2.25,2.25,0,0,0-1.39.93,1.29,1.29,0,0,1-.84.58,2.06,2.06,0,0,1-.35,0c-1.15-.13-2.3.55-3-.7-.37-.69-.8-1.45-1.11-2.16a1.25,1.25,0,0,1-.08-.89c0-.11.1-.22.15-.33A3.31,3.31,0,0,1,30.25,17a3.25,3.25,0,0,1,1.32-.07c.93,0,1.9,0,2.84,0C38.1,16.91,47,15.22,48.42,16.22Z"/><path class="cls-2" d="M18.88,54.75a19.06,19.06,0,0,1-2.21,2.55C13.75,61,19,66.42,23.74,63.17c0,0,1.92-1.5,2.84-2.34A12.16,12.16,0,0,1,18.88,54.75Z"/><path class="cls-2" d="M57,55.53c-.56-.56-3-2.6-5.57-5A9.5,9.5,0,0,0,47.87,53a34.09,34.09,0,0,0-3,4.54c.74.49,1.45,1,2.07,1.43,0,0-.24.21-.32.29-.66.65,1.13,3.17,2.25,4,2.27,1.71,4.18,2,5.77,1.22a26,26,0,0,0,3-2.21C59.87,60.64,59.41,58,57,55.53Z"/><path class="cls-2" d="M45,43.65a11.15,11.15,0,0,0-1.69-2.38A7.58,7.58,0,0,0,41,39.88,16.12,16.12,0,0,0,33,38.58a11.68,11.68,0,0,0-6,2.4c-1.68,1.38-2.62,4.06-3.73,6-.44.74-3.26,6.19-3.76,6.92a13.35,13.35,0,0,1-1.26,1.63c-.16.17-.93,3,2.27,5.16s5.27,1,5.27,1a14.31,14.31,0,0,0,1.4-1.25,87.17,87.17,0,0,0,7.47-7.67,1.67,1.67,0,0,1,.74-.61,1.55,1.55,0,0,1,.71,0s6.2,3.54,10.15,6.32c.17-2.32,5.3-7.08,7.55-5.76C50.7,50,46.52,46.13,45,43.65Z"/><path class="cls-2" d="M28,41.21c-1.43,2.71-3.59,7.7-5,10.42,1.54-.25,10.16-5,10.61-5.37Z"/><path class="cls-2" d="M39.57,22.52c-1.37,1.91-3.8,7-7,11.56-2.6,3.7-5.73,5.8-5.49,6.76l.58,1.07a9.94,9.94,0,0,0,6,4.47c6.33,1.17,9.91-2.13,11.17-3.71,1.53-1.93,2.46-3.51,4-5.45,2.85-3.59,5.75-7.26,7.37-11.54.8-2.1,1.24-4.55.17-6.52-1-1.79-3-2.75-4.85-3.56s-2.48-1.38-4.73-.18a12.37,12.37,0,0,0-2.78,2A34.93,34.93,0,0,0,39.57,22.52Z"/><path class="cls-2" d="M46,22.79a5,5,0,0,0,3.58,7.15c2.13.26,2.77-1.1,4.36-2.15a2.44,2.44,0,0,0,.8-.69c.55-.89.2-4.11-1.61-5.93-.94-1-2.94-2.62-3.93-1.52C47.92,21.07,46.46,22,46,22.79Z"/><path class="cls-2" d="M50.83,12.4a8,8,0,0,0-2,8.28,7.08,7.08,0,0,0,1.12,2.25c2.21,2.93,7,8.44,9.3,5.63.33-.4,3.72-9.95-.12-14.82C56.46,10.6,53,10.5,50.83,12.4Z"/><path class="cls-2" d="M50.68,23.84c.06-1.2-1-2.12-.39-3.05.76-1.25,1.57.11,2.48.25s1.25-1.43,2-2.14a10.57,10.57,0,0,1,3.34-2.34c.17-.07,2.25-.63,2.26-.43-.15-4.08-4.19-6.09-8-4.88-3.13,1-5.58,4.67-3.78,9.43A9.71,9.71,0,0,0,50.68,23.84Z"/><path class="cls-2" d="M45.4,49.28c.5,1.15,1.16,2.4,2.36,2.78a4.53,4.53,0,0,0,1.33.14c1.88,0,11.63-.55,14.17-1,1-.19,2.69-.37,3.67-.56.44-.08,1.8-.19,2.09-.54a1.74,1.74,0,0,0,.33-.86A7.65,7.65,0,0,0,69,45.36c-.16-.43-.27-.83-.71-1s-1,.26-1.61.13c-.29-.07-.49-.36-.78-.45-.48-.14-.91.31-1.21.71L63.78,46c-.36.49-.76,1.22-1.32,1.46s-11.38-.38-11.94-.18c-.28-3-1.11-9.31-1.26-9.69-.21-.55-.57.13-1-.3a4.81,4.81,0,0,0-2.42-1.49c-2.56-.54-4,2.08-3.52,4.24A51.69,51.69,0,0,0,45.4,49.28Z"/><path class="cls-2" d="M50.94,41.61c-.54-2.47-1.09-5-1.6-7-.81-3-3.2-3.7-5.33-3-4.73,1.64-2.22,11.38-2.07,12.09C42.36,45.88,51.39,43.65,50.94,41.61Z"/><path class="cls-2" d="M44.33,41.67l.79,2.88c.48-.06,1-.15,1.46-.26l-.79-2.9Z"/></g><text class="cls-3" transform="translate(86.1 39.59) scale(1.51 1)">A D A P<tspan class="cls-4" x="102.73" y="0"> </tspan><tspan x="107.77" y="0">T</tspan><tspan x="0" y="45">S P O R</tspan><tspan class="cls-5" x="101.61" y="45"> </tspan><tspan x="106.66" y="45">T</tspan><tspan class="cls-6" x="125.16" y="45"> </tspan><tspan class="cls-7" x="129.66" y="45">S</tspan></text></g></g></svg>