<svg xmlns="http://www.w3.org/2000/svg" viewBox="0 0 456.64 57.55"><defs><style>.cls-1{font-size:44.73px;fill:#009be0;stroke:#009be0;stroke-miterlimit:10;stroke-width:5px;font-family:Cronus-Italic, Cronus;font-style:italic;}.cls-2{letter-spacing:-0.02em;}.cls-3{letter-spacing:-0.04em;}.cls-4{letter-spacing:-0.04em;}.cls-5{letter-spacing:0em;}.cls-6{isolation:isolate;}.cls-7{fill:#028c22;}</style></defs><g id="Camada_2" data-name="Camada 2"><g id="Camada_1-2" data-name="Camada 1"><text class="cls-1" transform="translate(2.5 40.09) scale(1.51 1)">A D A P<tspan class="cls-2" x="102.73" y="0"> </tspan><tspan x="107.77" y="0" xml:space="preserve">T   </tspan><tspan class="cls-3" x="144.69" y="0"> </tspan><tspan x="149.19" y="0">S P O R</tspan><tspan class="cls-2" x="250.8" y="0"> </tspan><tspan x="255.85" y="0">T</tspan><tspan class="cls-4" x="274.35" y="0"> </tspan><tspan class="cls-5" x="278.85" y="0">S</tspan></text><g id="_8" data-name="8"><g class="cls-6"><path class="cls-7" d="M194,39.89l-.33-2.24s0-.08,0-.13a4.25,4.25,0,0,1,.07-1.11,3.05,3.05,0,0,1,.16-.56l.11-.29c.47-1.24,1.11-2,1.69-1.87l-1.23-.18c-.57-.08-1.22.63-1.69,1.88l-.11.28a3.41,3.41,0,0,0-.16.57,4.23,4.23,0,0,0-.07,1.11s0,.08,0,.12l.33,2.24a.31.31,0,0,1,0,.1.24.24,0,0,1,0,.09l0,0,1.22.17s0,0,0,0a.19.19,0,0,0,0-.08.31.31,0,0,0,0-.09Z"/><path class="cls-7" d="M196.48,33.84c-.17-.1-.38-.24-.64-.38a.4.4,0,0,0-.15,0l-1.23-.18.15,0c.26.14.47.27.64.38a1.63,1.63,0,0,0,.53.27l1.23.18A1.71,1.71,0,0,1,196.48,33.84Z"/><path class="cls-7" d="M198.06,30.93l-2,2.86c-.19.28-.38.15-.81-.12-.17-.11-.38-.24-.64-.38-.64-.24-1.4.53-1.94,2l-.11.28a4.44,4.44,0,0,0-.24,2.09l.32,2.24v0s0,0,.06,0a.41.41,0,0,0,0-.19l-.33-2.24a3.87,3.87,0,0,1,.21-1.8l.11-.28c.5-1.34,1.22-2.07,1.82-1.84a6.38,6.38,0,0,1,.64.38c.44.28.66.42.9.08l2-2.86Z"/><path class="cls-7" d="M199.29,31.1l-1.23-.17,0,.22-2,2.86c-.12.16-.23.21-.35.19l1.23.18c.12,0,.23,0,.35-.19l2-2.87Z"/></g><g class="cls-6"><path class="cls-7" d="M206.31,37.14l0,0L204.57,35a1.91,1.91,0,0,1-.22-.3,1.86,1.86,0,0,1-.32-1.26l.05-.22a1.59,1.59,0,0,1,.57-1l-.87.68a1.62,1.62,0,0,0-.56,1l-.05.22a1.8,1.8,0,0,0,.31,1.26l.22.3,1.73,2.1v0c0,.06,0,.11,0,.13l.86-.67S206.34,37.2,206.31,37.14Z"/><path class="cls-7" d="M207.76,32.39c-.36-.15-.81-.33-1.35-.52a2.06,2.06,0,0,0-1.93.21l-.86.68a2,2,0,0,1,1.92-.21c.54.19,1,.37,1.36.52.88.35,1.3.51,1.52.34l.86-.68C209.06,32.9,208.65,32.74,207.76,32.39Z"/><g class="cls-6"><g class="cls-6"><path class="cls-7" d="M208.6,33.6l.86-.68,0,0-.86.68,0,0Z"/></g></g><path class="cls-7" d="M210.93,31.2l-2.5,2.2c-.21.19-.63,0-1.53-.33-.37-.15-.82-.33-1.36-.52-1.28-.39-2.27.09-2.52,1.22L203,34a2.35,2.35,0,0,0,.62,1.81l1.72,2.09a.19.19,0,0,0,.07.06s.06,0,.07,0,0-.09,0-.15l-1.73-2.1a2,2,0,0,1-.53-1.56l.05-.22c.23-1.07,1.16-1.52,2.36-1.15.54.19,1,.37,1.35.51.94.37,1.41.56,1.67.32l2.49-2.2Z"/><polygon class="cls-7" points="211.79 30.52 210.93 31.2 211.09 31.4 208.6 33.6 209.46 32.92 211.96 30.72 211.79 30.52"/></g><path class="cls-7" d="M199.71,27.54c-.77-.1-2.09,2.34-2,3.46a1.31,1.31,0,0,0,.75,1.09c.82.37,1.77-.24,2.37-.83l1.27-1.2Z"/><path class="cls-7" d="M212.84,27.66c-.75-.17-2.56,1.83-2.7,2.94a1.28,1.28,0,0,0,.49,1.23c.72.55,1.78.16,2.49-.28.14-.09,1.26-.7,1.39-.78Z"/><path class="cls-7" d="M212,11.14c.13.09-.88.86-.81,1,.27.64-.36.91-.93.86a28.79,28.79,0,0,0-3.35,0,.9.9,0,0,0-.57.38.54.54,0,0,1-.34.24h-.14c-.47,0-.94.22-1.21-.29-.15-.28-.33-.59-.45-.88a.5.5,0,0,1,0-.36.83.83,0,0,1,.07-.13,1.31,1.31,0,0,1,.37-.5,1.23,1.23,0,0,1,.54,0l1.15,0C207.79,11.42,211.42,10.73,212,11.14Z"/><path class="cls-7" d="M200,26.82a6.79,6.79,0,0,1-.89,1c-1.19,1.49,1,3.71,2.87,2.39,0,0,.78-.61,1.16-.95A5,5,0,0,1,200,26.82Z"/><path class="cls-7" d="M215.47,27.14c-.22-.23-1.21-1.06-2.26-2a3.9,3.9,0,0,0-1.45,1,13.76,13.76,0,0,0-1.22,1.85l.84.58s-.1.09-.13.12c-.27.26.46,1.29.92,1.63a2.21,2.21,0,0,0,2.34.5,9.51,9.51,0,0,0,1.23-.9C216.65,29.22,216.46,28.13,215.47,27.14Z"/><path class="cls-7" d="M210.61,22.31a4.45,4.45,0,0,0-.68-1,3,3,0,0,0-1-.57,6.5,6.5,0,0,0-3.28-.53,4.79,4.79,0,0,0-2.46,1,8.7,8.7,0,0,0-1.52,2.42c-.18.3-1.33,2.52-1.53,2.82a6.45,6.45,0,0,1-.51.66,1.79,1.79,0,0,0,.92,2.1,2.2,2.2,0,0,0,2.15.4c.28-.23.28-.24.57-.51a37.43,37.43,0,0,0,3-3.13.59.59,0,0,1,.3-.24.7.7,0,0,1,.29,0s2.52,1.45,4.13,2.58c.07-.94,2.15-2.88,3.07-2.34A22.51,22.51,0,0,1,210.61,22.31Z"/><path class="cls-7" d="M203.69,21.31c-.58,1.11-1.46,3.14-2,4.24A32.08,32.08,0,0,0,206,23.37Z"/><path class="cls-7" d="M208.38,13.7c-.55.78-1.54,2.83-2.86,4.71-1.06,1.5-2.33,2.36-2.23,2.75l.23.44A4.08,4.08,0,0,0,206,23.42a4.56,4.56,0,0,0,4.54-1.51c.63-.79,1-1.43,1.63-2.22a18.22,18.22,0,0,0,3-4.7,3.27,3.27,0,0,0,.07-2.65,3.81,3.81,0,0,0-2-1.45c-.82-.36-1-.56-1.92-.08a4.94,4.94,0,0,0-1.14.84A14.92,14.92,0,0,0,208.38,13.7Z"/><path class="cls-7" d="M211,13.81a2.07,2.07,0,0,0,1.46,2.92c.87.1,1.13-.45,1.78-.88a1,1,0,0,0,.32-.28,2.61,2.61,0,0,0-.65-2.42c-.39-.38-1.2-1.06-1.6-.61A16.77,16.77,0,0,0,211,13.81Z"/><path class="cls-7" d="M213,9.59a3.24,3.24,0,0,0-.82,3.37,2.58,2.58,0,0,0,.45.91c.9,1.19,2.83,3.44,3.78,2.29.14-.16,1.52-4.05,0-6A2.29,2.29,0,0,0,213,9.59Z"/><path class="cls-7" d="M212.91,14.24c0-.49-.39-.86-.16-1.24s.64,0,1,.1.51-.58.81-.87a4.13,4.13,0,0,1,1.36-1c.07,0,.91-.26.92-.18a2.34,2.34,0,0,0-3.25-2A2.78,2.78,0,0,0,212.06,13,4,4,0,0,0,212.91,14.24Z"/><path class="cls-7" d="M210.76,24.6a1.82,1.82,0,0,0,1,1.13,2.42,2.42,0,0,0,.54.06c.77,0,4.74-.23,5.77-.42.4-.08,1.09-.16,1.49-.23.18,0,.73-.08.85-.22a.76.76,0,0,0,.14-.35,3.11,3.11,0,0,0-.14-1.57c-.06-.17-.11-.33-.29-.41s-.43.11-.65.06-.2-.15-.32-.19-.37.13-.49.29l-.38.51c-.15.2-.31.5-.54.59s-4.63-.15-4.86-.07c-.11-1.2-.45-3.79-.51-3.94s-.23.05-.4-.13a2,2,0,0,0-1-.6c-1-.22-1.63.84-1.44,1.72A21.64,21.64,0,0,0,210.76,24.6Z"/><path class="cls-7" d="M213,21.47c-.22-1-.44-2-.65-2.83a1.57,1.57,0,0,0-2.17-1.2c-1.92.67-.9,4.63-.84,4.92C209.52,23.21,213.2,22.31,213,21.47Z"/><path class="cls-7" d="M210.32,21.5l.33,1.17a4.34,4.34,0,0,0,.59-.11l-.32-1.18Z"/></g></g></g></svg>